<?xml version="1.0" ?><!DOCTYPE svg  PUBLIC '-//W3C//DTD SVG 1.1//EN'  'http://www.w3.org/Graphics/SVG/1.1/DTD/svg11.dtd'><svg enable-background="new 0 0 24 24" height="24px" id="Layer_1" version="1.1" viewBox="0 0 24 24" width="24px" xml:space="preserve" xmlns="http://www.w3.org/2000/svg" xmlns:xlink="http://www.w3.org/1999/xlink"><path d="M23,0H6C5.4,0,5,0.4,5,1v1c0,0.6,0.4,1,1,1v3H1C0.4,6,0,6.4,0,7v10c0,0.6,0.4,1,1,1h5v5c0,0.6,0.4,1,1,1h15c0.6,0,1-0.4,1-1  V3c0.6,0,1-0.4,1-1V1C24,0.4,23.6,0,23,0z M6,15H3V9h3V15z M6,8H2v8h4v1H1V7h5V8z M21,22H8v-5h13V22z M21,16H8v-5h13V16z M21,10H8V4  h3.3c0.3,0.6,1,1,1.7,1s1.4-0.4,1.7-1H16c0,1.1,0.9,2,2,2s2-0.9,2-2h1V10z M23,2h-1h-3v1v1c0,0.6-0.4,1-1,1s-1-0.4-1-1V2h-3v1  c0,0.6-0.4,1-1,1s-1-0.4-1-1V2H7H6V1h17V2z"/></svg>