<svg id="svg" version="1.1" width="965" height="1000" xmlns="http://www.w3.org/2000/svg" xmlns:xlink="http://www.w3.org/1999/xlink" style="display: block;"><g id="svgg"><path id="path0" d="M186.528 79.987 C 153.523 83.167,124.226 102.140,107.462 131.192 C 95.838 151.335,92.758 177.114,98.696 204.560 C 108.085 247.955,141.068 300.770,189.058 349.253 L 197.293 357.574 205.120 349.668 C 259.047 295.190,292.653 237.751,298.263 190.466 C 305.851 126.511,252.381 73.641,186.528 79.987 M210.570 121.412 C 272.958 134.560,286.991 217.149,232.407 249.931 C 178.919 282.056,112.674 231.349,129.539 171.192 C 139.382 136.080,175.343 113.989,210.570 121.412 M156.613 161.872 C 149.141 163.360,146.967 168.525,152.504 171.637 C 153.388 172.133,154.302 172.957,154.534 173.468 C 155.055 174.610,161.618 191.392,167.098 205.596 C 173.673 222.634,174.105 223.239,179.481 222.935 C 184.103 222.674,184.159 222.593,190.322 207.254 C 196.819 191.084,196.183 191.094,202.924 207.047 C 209.521 222.656,209.776 223.005,214.582 223.005 C 219.353 223.005,221.272 219.326,233.336 187.042 C 238.197 174.035,239.077 172.155,241.180 170.291 C 247.998 164.248,238.556 158.914,226.192 161.823 C 220.559 163.149,219.948 167.952,225.137 170.120 C 227.740 171.208,227.749 172.066,225.236 179.452 C 221.094 191.627,220.271 191.636,214.749 179.565 C 211.600 172.679,211.543 171.792,214.093 169.348 C 219.318 164.342,213.733 161.228,199.585 161.260 C 184.745 161.293,178.731 165.476,185.906 170.777 C 187.921 172.265,189.460 174.610,190.411 177.640 C 190.860 179.070,187.698 187.400,186.197 188.742 C 184.596 190.174,183.918 189.393,181.175 182.954 C 177.388 174.069,177.003 172.216,178.391 169.562 C 181.560 163.501,177.730 161.187,164.687 161.282 C 161.767 161.304,158.134 161.569,156.613 161.872 " stroke="none" fill="#f7f6f2" fill-rule="evenodd"></path><path id="path1" d="M182.383 0.630 C 161.555 2.531,139.248 8.281,121.940 16.209 C 120.499 16.869,119.234 17.409,119.129 17.409 C 118.936 17.409,109.117 22.252,107.565 23.113 C 92.483 31.475,78.557 41.450,67.363 51.907 C 65.722 53.441,63.612 55.368,62.675 56.189 C 60.591 58.016,52.239 67.186,47.784 72.539 C 38.064 84.217,30.481 95.784,23.191 110.052 C 19.708 116.870,18.104 120.409,14.080 130.155 C 11.480 136.455,8.294 146.775,5.379 158.342 C -0.104 180.101,-1.559 212.168,1.823 236.684 C 4.552 256.469,9.366 273.699,17.391 292.402 C 23.881 307.530,40.247 334.868,45.575 339.482 C 45.707 339.596,46.651 340.715,47.674 341.969 C 55.881 352.033,68.761 364.739,77.513 371.407 C 78.539 372.189,79.472 372.936,79.585 373.068 C 79.699 373.200,80.539 373.857,81.451 374.527 C 82.363 375.198,83.202 375.847,83.316 375.970 C 83.571 376.246,88.603 379.809,91.349 381.659 C 151.928 422.468,232.527 425.688,295.342 389.811 C 297.619 388.510,299.855 387.235,300.311 386.977 C 300.767 386.719,301.979 385.971,303.005 385.316 C 321.682 373.387,334.244 362.606,349.428 345.474 C 356.172 337.865,363.817 327.248,370.158 316.684 C 375.273 308.163,377.715 303.399,383.121 291.399 C 387.013 282.762,391.730 268.460,394.197 257.824 C 396.474 248.004,396.755 246.512,398.343 235.855 C 406.951 178.052,387.229 111.221,348.986 68.601 C 343.690 62.699,338.100 56.761,336.540 55.379 C 335.536 54.491,333.689 52.808,332.435 51.640 C 318.310 38.485,297.368 24.595,280.622 17.274 C 265.706 10.754,255.588 7.385,241.658 4.300 C 224.285 0.452,200.477 -1.022,182.383 0.630 M211.701 80.189 C 262.008 87.031,299.188 128.398,299.265 177.617 C 299.341 226.376,264.555 289.910,204.498 350.699 L 197.306 357.979 189.926 350.492 C 113.996 273.463,80.754 195.903,101.340 143.804 C 115.967 106.787,148.314 83.258,189.845 79.428 C 193.492 79.091,207.120 79.566,211.701 80.189 M188.187 120.840 C 131.406 127.924,107.083 197.141,146.918 238.283 C 189.423 282.184,264.276 253.423,265.994 192.530 C 267.225 148.932,230.945 115.506,188.187 120.840 M170.363 161.224 C 178.835 161.891,181.414 164.311,178.859 169.196 C 177.397 171.993,177.553 173.330,180.091 179.704 C 184.645 191.142,185.524 191.541,188.600 183.564 C 190.900 177.601,190.097 174.104,185.703 170.947 C 177.207 164.843,187.163 159.848,205.082 161.224 C 215.232 162.004,218.826 165.190,214.289 169.387 C 211.567 171.905,211.766 173.101,216.478 182.591 C 220.489 190.670,221.349 190.392,224.846 179.882 C 227.362 172.322,227.349 171.516,224.692 170.170 C 219.854 167.719,220.309 163.087,225.530 161.630 C 228.556 160.786,237.755 160.890,240.099 161.794 C 244.473 163.482,244.991 166.604,241.507 170.290 C 238.714 173.245,239.276 172.054,233.649 186.943 C 220.154 222.652,218.885 224.798,212.296 223.024 C 208.989 222.133,209.120 222.374,199.363 199.171 C 196.550 192.483,196.495 192.537,190.238 208.083 C 184.342 222.731,183.986 223.210,179.015 223.212 C 174.387 223.213,173.331 222.013,169.598 212.518 C 167.748 207.809,155.732 177.041,154.313 173.379 C 154.205 173.100,153.197 172.305,152.073 171.614 C 145.784 167.744,149.751 162.115,159.378 161.247 C 164.208 160.812,165.103 160.810,170.363 161.224 " stroke="none" fill="#4896ad" fill-rule="evenodd"></path><path id="path2" d="M192.633 79.470 C 193.369 79.562,194.675 79.563,195.535 79.473 C 196.395 79.384,195.793 79.309,194.197 79.307 C 192.601 79.305,191.897 79.379,192.633 79.470 M198.851 79.470 C 199.587 79.562,200.892 79.563,201.752 79.473 C 202.612 79.384,202.010 79.309,200.415 79.307 C 198.819 79.305,198.115 79.379,198.851 79.470 M123.721 109.534 L 120.415 112.953 123.834 109.647 C 127.010 106.576,127.443 106.114,127.141 106.114 C 127.078 106.114,125.539 107.653,123.721 109.534 M270.052 109.016 C 271.635 110.611,273.024 111.917,273.138 111.917 C 273.252 111.917,272.050 110.611,270.466 109.016 C 268.883 107.420,267.494 106.114,267.380 106.114 C 267.266 106.114,268.468 107.420,270.052 109.016 M163.627 161.129 C 164.368 161.221,165.580 161.221,166.321 161.129 C 167.062 161.037,166.456 160.962,164.974 160.962 C 163.492 160.962,162.886 161.037,163.627 161.129 M198.446 161.129 C 199.187 161.221,200.399 161.221,201.140 161.129 C 201.881 161.037,201.275 160.962,199.793 160.962 C 198.311 160.962,197.705 161.037,198.446 161.129 M231.597 161.128 C 232.333 161.220,233.639 161.221,234.499 161.132 C 235.359 161.042,234.756 160.967,233.161 160.965 C 231.565 160.963,230.861 161.037,231.597 161.128 M298.956 173.264 C 298.956 174.062,299.042 174.389,299.146 173.990 C 299.250 173.591,299.250 172.938,299.146 172.539 C 299.042 172.140,298.956 172.466,298.956 173.264 M298.956 182.383 C 298.956 183.181,299.042 183.508,299.146 183.109 C 299.250 182.710,299.250 182.057,299.146 181.658 C 299.042 181.259,298.956 181.585,298.956 182.383 M266.263 189.845 C 266.263 192.010,266.333 192.896,266.419 191.813 C 266.504 190.731,266.504 188.959,266.419 187.876 C 266.333 186.793,266.263 187.679,266.263 189.845 M213.575 223.291 C 213.974 223.395,214.627 223.395,215.026 223.291 C 215.425 223.187,215.098 223.101,214.301 223.101 C 213.503 223.101,213.176 223.187,213.575 223.291 M147.358 239.171 C 148.711 240.539,149.912 241.658,150.026 241.658 C 150.140 241.658,149.126 240.539,147.772 239.171 C 146.418 237.803,145.218 236.684,145.104 236.684 C 144.990 236.684,146.004 237.803,147.358 239.171 M183.212 343.834 C 183.986 344.632,184.712 345.285,184.826 345.285 C 184.940 345.285,184.400 344.632,183.627 343.834 C 182.854 343.036,182.128 342.383,182.014 342.383 C 181.900 342.383,182.439 343.036,183.212 343.834 M210.343 344.560 L 208.705 346.321 210.466 344.683 C 212.105 343.159,212.418 342.798,212.105 342.798 C 212.037 342.798,211.244 343.591,210.343 344.560 " stroke="none" fill="#75a6ba" fill-rule="evenodd"></path><path id="path3" d="M147.136 140.829 L 144.870 143.212 147.254 140.947 C 148.565 139.701,149.637 138.628,149.637 138.563 C 149.637 138.256,149.241 138.615,147.136 140.829 M95.497 177.824 C 95.497 180.674,95.563 181.839,95.644 180.415 C 95.725 178.990,95.725 176.658,95.644 175.233 C 95.563 173.808,95.497 174.974,95.497 177.824 M299.005 177.824 C 299.005 179.762,299.076 180.554,299.164 179.585 C 299.251 178.617,299.251 177.031,299.164 176.062 C 299.076 175.093,299.005 175.886,299.005 177.824 M203.516 351.399 L 199.171 355.855 203.627 351.510 C 206.078 349.120,208.083 347.115,208.083 347.054 C 208.083 346.755,207.552 347.260,203.516 351.399 " stroke="none" fill="#ccdade" fill-rule="evenodd"></path><path id="path4" d="M126.991 190.052 C 126.992 192.332,127.061 193.211,127.145 192.007 C 127.229 190.802,127.229 188.937,127.143 187.862 C 127.058 186.786,126.990 187.772,126.991 190.052 M246.195 239.067 L 244.767 240.622 246.321 239.193 C 247.768 237.864,248.066 237.513,247.750 237.513 C 247.680 237.513,246.981 238.212,246.195 239.067 M194.523 259.789 C 195.842 259.871,197.894 259.870,199.082 259.787 C 200.271 259.703,199.192 259.636,196.684 259.637 C 194.176 259.638,193.204 259.706,194.523 259.789 M190.674 351.218 C 190.674 351.289,191.280 351.895,192.021 352.565 L 193.368 353.782 192.150 352.435 C 191.016 351.180,190.674 350.898,190.674 351.218 " stroke="none" fill="#d6e4e5" fill-rule="evenodd"></path></g></svg>