<?xml version="1.0" standalone="no"?>
<!DOCTYPE svg PUBLIC "-//W3C//DTD SVG 20010904//EN"
 "http://www.w3.org/TR/2001/REC-SVG-20010904/DTD/svg10.dtd">
<svg version="1.0" xmlns="http://www.w3.org/2000/svg"
 width="1146.000000pt" height="1565.000000pt" viewBox="0 0 1146.000000 1565.000000"
 preserveAspectRatio="xMidYMid meet">
<metadata>
Created by potrace 1.14, written by Peter Selinger 2001-2017
</metadata>
<g transform="translate(0.000000,1565.000000) scale(0.100000,-0.100000)"
fill="#000000" stroke="none">
<path d="M5340 15640 c-1314 -91 -2429 -539 -3401 -1367 -149 -127 -508 -487
-632 -634 -353 -418 -612 -813 -804 -1222 -435 -930 -585 -1913 -462 -3022
173 -1565 902 -3322 2162 -5210 870 -1303 1974 -2633 3200 -3857 l328 -328
265 263 c1206 1190 2368 2584 3243 3892 448 669 773 1221 1096 1860 659 1306
1021 2487 1111 3620 13 164 15 288 11 570 -6 437 -26 642 -98 1005 -140 708
-431 1384 -853 1981 -210 296 -426 549 -712 829 -453 445 -914 773 -1469 1045
-631 310 -1261 484 -2025 561 -182 18 -774 27 -960 14z m610 -34 c1706 -60
3189 -790 4261 -2096 290 -354 505 -685 689 -1062 294 -604 456 -1214 510
-1913 15 -189 15 -653 0 -850 -102 -1392 -623 -2879 -1588 -4530 -629 -1078
-1474 -2236 -2454 -3368 -421 -486 -732 -820 -1224 -1317 -262 -264 -383 -393
-386 -410 -3 -22 -50 21 -389 360 -1642 1642 -3080 3518 -4004 5225 -1225
2264 -1603 4272 -1124 5964 201 709 551 1355 1069 1971 145 173 526 554 698
698 799 671 1700 1085 2724 1252 299 48 648 80 896 80 91 0 122 3 122 13 0 8
3 9 8 1 4 -7 76 -13 192 -18z"/>
</g>
</svg>
